# xmcd
# 
# Track frame offsets:
#     150
#     25028
#     43075
#     68788
#     86938
#     107048
#     140248
#     161410
#     179938
#     196923
#     209310
#     226650
#     246628
#     254940
#     272675
#     285600
#     302200
# 
# Disc length: 4350
# 
# Revision: 1
# Processed by: cddbd v1.5.2PL0 Copyright (c) Steve Scherf et al.
# Submitted via: BonkEnc v1.0.5
# 
DISCID=0c10fc11
DTITLE=J.J.GOLDMAN - Entre gris clair et gris foncé
DYEAR=1987
DGENRE=Blues
TTITLE0=A quoi tu sers?
TTITLE1=Il changeait la vie
TTITLE2=Là-bas
TTITLE3=Entre gris clair et gris foncé
TTITLE4=C'est ta chance
TTITLE5=Puisque tu pars
TTITLE6=Des bouts de moi
TTITLE7=Fais des bébés
TTITLE8=Filles faciles
TTITLE9=Je commence demain
TTITLE10=Elle a fait un bébé toute seule
TTITLE11=Quelque part, qelqu'un
TTITLE12=Qu"elle soit elle
TTITLE13=Doux
TTITLE14=Reprendre c'est voler
TTITLE15=Il y a
TTITLE16=Peur de rien blues
EXTD=
EXTT0=
EXTT1=
EXTT2=
EXTT3=
EXTT4=
EXTT5=
EXTT6=
EXTT7=
EXTT8=
EXTT9=
EXTT10=
EXTT11=
EXTT12=
EXTT13=
EXTT14=
EXTT15=
EXTT16=
PLAYORDER=
